<svg version="1.1" xmlns="http://www.w3.org/2000/svg" xmlns:xlink="http://www.w3.org/1999/xlink" width="48" height="48"><defs><linearGradient x1="0" y1="0" x2="0" y2="0" gradientUnits="userSpaceOnUse" id="color-1"><stop offset="0" stop-color="#000000" stop-opacity="0.85"></stop><stop offset="1" stop-color="#000000" stop-opacity="0"></stop></linearGradient><filter id="dropshadow-base"><feColorMatrix type="matrix" values="0 0 0 0 0  0 0 0 0 0  0 0 0 0 0  0 0 0 .8 0"></feColorMatrix> <feOffset dx="0" dy="1"></feOffset> <feGaussianBlur stdDeviation="1"></feGaussianBlur> <feComposite in="SourceGraphic"></feComposite></filter><filter id="dropshadow-banner" x="-10%" y="-10%" width="120%" height="130%"><feColorMatrix type="matrix" values="0 0 0 0 0  0 0 0 0 0  0 0 0 0 0  0 0 0 .4 0"></feColorMatrix> <feOffset dx="0" dy="1"></feOffset> <feGaussianBlur stdDeviation="0.5"></feGaussianBlur> <feComposite in="SourceGraphic"></feComposite></filter></defs><g fill="none" fill-rule="nonzero" stroke="none" stroke-width="none" stroke-linecap="butt" stroke-linejoin="miter" stroke-miterlimit="10" stroke-dasharray="" stroke-dashoffset="0" font-family="none" font-weight="none" font-size="none" text-anchor="none" style="mix-blend-mode: normal"><path d="M2,24c0,-12.15026 9.84974,-22 22,-22c12.15026,0 22,9.84974 22,22c0,12.15026 -9.84974,22 -22,22c-12.15026,0 -22,-9.84974 -22,-22z" id="base 1 5" fill="#ffffff" stroke-width="1"></path><path d="" fill="url(#color-1)" stroke-width="1"></path><path d="M27.5943,20.14212c-0.66169,0 -1.1981,-0.53641 -1.1981,-1.1981c0,-0.66169 0.53641,-1.1981 1.1981,-1.1981c0.66169,0 1.1981,0.53641 1.1981,1.1981c0,0.31776 -0.12623,0.6225 -0.35092,0.84718c-0.22469,0.22469 -0.52943,0.35092 -0.84718,0.35092zM20.4057,20.14212c-0.66169,0 -1.1981,-0.53641 -1.1981,-1.1981c0,-0.66169 0.53641,-1.1981 1.1981,-1.1981c0.66169,0 1.1981,0.53641 1.1981,1.1981c0,0.31776 -0.12623,0.6225 -0.35092,0.84718c-0.22469,0.22469 -0.52943,0.35092 -0.84718,0.35092zM28.93617,14.59492l2.51601,-2.51601l-0.98244,-0.99442l-2.76761,2.76761c-1.11423,-0.56311 -2.37224,-0.89857 -3.70213,-0.89857c-1.34187,0 -2.58789,0.33547 -3.70213,0.89857l-2.76761,-2.76761l-0.98244,0.99442l2.51601,2.51601c-2.08469,1.52159 -3.45053,3.96571 -3.45053,6.7453v1.1981h16.77339v-1.1981c0,-2.77959 -1.36583,-5.22371 -3.45053,-6.7453zM15.6133,28.52882c0,4.62466 3.75005,8.3867 8.3867,8.3867c4.63184,0 8.3867,-3.75485 8.3867,-8.3867v-4.7924h-16.77339z" fill="none" stroke-width="0"></path><path d="M27.5943,20.14212c0.31776,0 0.6225,-0.12623 0.84718,-0.35092c0.22469,-0.22469 0.35092,-0.52943 0.35092,-0.84718c0,-0.66169 -0.53641,-1.1981 -1.1981,-1.1981c-0.66169,0 -1.1981,0.53641 -1.1981,1.1981c0,0.66169 0.53641,1.1981 1.1981,1.1981zM20.4057,20.14212c0.31776,0 0.6225,-0.12623 0.84718,-0.35092c0.22469,-0.22469 0.35092,-0.52943 0.35092,-0.84718c0,-0.66169 -0.53641,-1.1981 -1.1981,-1.1981c-0.66169,0 -1.1981,0.53641 -1.1981,1.1981c0,0.66169 0.53641,1.1981 1.1981,1.1981zM28.93617,14.59492c2.08469,1.52159 3.45053,3.96571 3.45053,6.7453v1.1981h-16.77339v-1.1981c0,-2.77959 1.36583,-5.22371 3.45053,-6.7453l-2.51601,-2.51601l0.98244,-0.99442l2.76761,2.76761c1.11423,-0.56311 2.36026,-0.89857 3.70213,-0.89857c1.32989,0 2.58789,0.33547 3.70213,0.89857l2.76761,-2.76761l0.98244,0.99442zM15.6133,23.73642h16.77339v4.7924c0,4.63184 -3.75485,8.3867 -8.3867,8.3867c-4.63664,0 -8.3867,-3.76203 -8.3867,-8.3867z" fill="#2e7866" stroke-width="0"></path><path d="M2,24c0,-12.15026 9.84974,-22 22,-22c12.15026,0 22,9.84974 22,22c0,12.15026 -9.84974,22 -22,22c-12.15026,0 -22,-9.84974 -22,-22z" id="base 1 1 1" fill="none" stroke-width="1"></path><g fill="#000000" stroke-width="1" font-family="Roboto, sans-serif" font-weight="normal" font-size="14" text-anchor="start"></g><rect x="2" y="2" width="44" height="22" fill="none" stroke-width="1"></rect><path d="M2,24v-22h44v22z" fill="none" stroke-width="1"></path><path d="M2,24v-22h44v22z" fill="none" stroke-width="1"></path><path d="M2,24v-22h44v22z" fill="none" stroke-width="1"></path><path d="M2,24v-22h44v22z" fill="none" stroke-width="1"></path></g></svg>